<svg width="452" height="159" viewBox="0 0 452 159" fill="none" xmlns="http://www.w3.org/2000/svg">
<mask id="mask0_0_1" style="mask-type:luminance" maskUnits="userSpaceOnUse" x="382" y="55" width="52" height="92">
<path d="M382.796 55.3698H433.332V147H382.796V55.3698Z" fill="white"/>
</mask>
<g mask="url(#mask0_0_1)">
<path d="M390.504 139.047C392.093 140.188 396.499 137.74 407.983 106.349C419.603 71.422 416.697 71.8126 416.817 70.7189" stroke="black" stroke-width="2.66384"/>
</g>
<mask id="mask1_0_1" style="mask-type:luminance" maskUnits="userSpaceOnUse" x="382" y="50" width="40" height="97">
<path d="M382.796 50.0365H421.332V147H382.796V50.0365Z" fill="white"/>
</mask>
<g mask="url(#mask1_0_1)">
<path d="M386.176 138.276C384.223 138.219 381.645 135.203 390.223 101.13C397.489 77.4585 402.171 67.4429 405.176 65.6981" stroke="black" stroke-width="2.66384"/>
</g>
<path d="M404.332 68.9116C400.593 67.9689 402.27 61.9428 405.916 62.1408" stroke="black" stroke-width="2.66384"/>
<path fill-rule="evenodd" clip-rule="evenodd" d="M404.89 67.1564C397.03 79.5053 385.082 117.912 385.614 136.537C385.4 137.344 391.286 139.073 391.603 138.479C402.28 123.349 414.681 85.5991 416.452 70.8282C410.744 67.0678 404.89 67.1564 404.89 67.1564Z" fill="#358EF1" stroke="black" stroke-width="0.266349"/>
<path d="M416.478 72.5418C418.931 72.922 421.634 69.6772 418.593 65.9793" stroke="black" stroke-width="2.66384"/>
<mask id="mask2_0_1" style="mask-type:luminance" maskUnits="userSpaceOnUse" x="387" y="0" width="65" height="84">
<path d="M387.999 0H451.999V83.3698H387.999V0Z" fill="white"/>
</mask>
<g mask="url(#mask2_0_1)">
<path d="M404.171 62.7345C404.317 51.922 411.332 34.1095 412.286 31.2657C413.233 28.4272 424.306 1.93231 431.562 4.14065C438.817 6.34378 437.088 21.4584 430.14 42.698C423.192 63.9428 419.202 67.4845 419.202 67.4845" stroke="black" stroke-width="2.66384"/>
</g>
<path fill-rule="evenodd" clip-rule="evenodd" d="M431.421 5.5C422.067 2.77083 405.739 46.4167 405.437 62.6928C404.869 64.948 408.515 64.698 412.254 65.6616C416.093 66.6668 418.108 68.9949 418.624 66.922C428.082 51.1251 441.301 8.69272 431.421 5.5Z" fill="#358EF1" stroke="black" stroke-width="0.266349"/>
<path fill-rule="evenodd" clip-rule="evenodd" d="M403.713 65.2762C402.655 68.8179 406.608 67.6408 410.567 68.7553C414.52 69.8699 417.629 72.5314 418.473 70.0001C419.322 67.4689 415.317 64.4272 412.098 63.7762C408.879 63.1199 404.577 62.3178 403.713 65.2762Z" fill="#FAE472" stroke="black" stroke-width="1.33174"/>
<path fill-rule="evenodd" clip-rule="evenodd" d="M388.754 131.5C393.666 101.87 400.681 83.3281 403.457 76.4792C405.999 69.3229 399.76 95.4375 398.484 99.25L388.754 131.5Z" fill="white" fill-opacity="0.5412"/>
<path fill-rule="evenodd" clip-rule="evenodd" d="M408.796 61.6406C412.411 39.9323 419.572 23.3177 421.635 20.5781C423.692 17.8333 420.582 30.5417 420.582 30.5417L408.796 61.6406Z" fill="white" fill-opacity="0.5412"/>
<path fill-rule="evenodd" clip-rule="evenodd" d="M385.942 137.745C384.582 145.74 386.655 146.823 390.921 139.271C388.999 139.115 386.671 138.167 385.942 137.745Z" fill="#6B798F"/>
<mask id="mask3_0_1" style="mask-type:luminance" maskUnits="userSpaceOnUse" x="382" y="127" width="20" height="20">
<path d="M382.796 127.37H401.332V147H382.796V127.37Z" fill="white"/>
</mask>
<g mask="url(#mask3_0_1)">
<path d="M385.942 137.745C384.582 145.74 386.655 146.823 390.921 139.271C388.999 139.115 386.671 138.167 385.942 137.745Z" stroke="black" stroke-width="1.6248"/>
</g>
<path d="M44.3812 94.0223C45.6573 96.9129 46.2979 99.1681 46.2979 100.793C46.2979 102.408 45.6937 103.705 44.4854 104.689C43.2875 105.679 41.8812 106.168 40.2562 106.168C38.6416 106.168 37.4125 105.824 36.5687 105.126C35.7198 104.418 34.975 102.897 34.3396 100.564C32.9229 96.2619 29.4646 95.8712 23.9646 99.3973C19.2406 102.231 15.8187 106.33 13.6937 111.689C11.5791 117.054 11.0166 122.376 12.0062 127.668C12.9906 132.949 15.4958 136.96 19.5271 139.71C24.5375 143.1 29.5791 142.929 34.6521 139.189C37.5531 137.147 39.4958 135.283 40.4854 133.585C41.8187 131.543 43.6104 130.663 45.8604 130.939C48.1208 131.22 49.6781 132.455 50.5271 134.647C51.8031 137.955 49.2614 142.251 42.9021 147.543C34.0948 154.736 25.3187 156.043 16.5687 151.46C9.71977 147.934 4.92289 142.434 2.17289 134.96C-0.577109 127.491 -0.717734 119.585 1.75622 111.251C3.22498 106.184 5.16247 102.059 7.56873 98.8764C9.96977 95.6994 13.0062 92.9129 16.6729 90.5223C20.3396 88.1212 22.8708 86.7098 24.2771 86.2931C25.6937 85.866 28.2354 85.6473 31.9021 85.6473C35.6364 85.6473 38.3187 86.3556 39.9437 87.7723C41.6364 89.0379 43.1156 91.1212 44.3812 94.0223Z" fill="#3178C6"/>
<path d="M80.4715 115.376C78.4142 113.335 76.3308 113.095 74.2215 114.647C72.1069 116.205 70.4142 119.309 69.1381 123.96C67.8725 128.616 68.159 132.918 69.9923 136.876C71.8256 140.824 74.2527 142.408 77.284 141.626C79.2006 141.126 80.5756 140.455 81.409 139.606C82.2527 138.762 83.034 137.074 83.7423 134.543C84.4506 132.001 84.4506 128.543 83.7423 124.168C83.034 119.793 81.9402 116.866 80.4715 115.376ZM57.284 126.293C57.5756 120.783 58.9819 115.767 61.5131 111.251C64.0548 106.741 67.3308 103.679 71.3465 102.064C75.3725 100.439 81.2683 101.741 89.034 105.96C93.1277 108.225 95.7423 110.137 96.8673 111.689C97.9923 113.231 98.06 114.996 97.0756 116.981C96.0861 118.955 95.6642 122.762 95.8048 128.397C96.2319 141.804 91.4767 149.944 81.534 152.835C74.0444 155.028 67.6225 153.054 62.2631 146.918C60.0131 144.309 58.534 141.595 57.8256 138.772C57.185 135.955 57.0027 131.793 57.284 126.293Z" fill="#3178C6"/>
<path d="M132.737 158.335C132.445 159.251 132.263 159.147 132.195 158.022C132.055 155.84 132.164 154.783 132.529 154.856C132.596 154.856 132.7 155.132 132.841 155.689C132.977 156.257 132.945 157.137 132.737 158.335ZM127.654 116.981C124.195 115.288 122.393 114.439 122.258 114.439C122.117 114.439 121.055 115.574 119.07 117.835C117.096 120.085 116.18 122.658 116.32 125.543C116.471 128.434 117.674 131.012 119.924 133.272C122.185 135.522 124.477 137.074 126.799 137.918C129.133 138.626 130.575 138.913 131.133 138.772C131.7 138.637 132.549 137.929 133.674 136.647C136.716 133.054 137.56 129.033 136.216 124.585C135.659 122.892 134.956 121.621 134.112 120.772C133.263 119.929 131.112 118.663 127.654 116.981ZM136.216 84.1681C136.352 80.6421 136.883 78.314 137.799 77.189C138.799 76.064 140.247 75.5015 142.154 75.5015C144.055 75.5015 145.466 75.9963 146.383 76.9806C147.091 78.5223 147.654 81.0223 148.07 84.4806C148.497 87.939 148.924 91.7515 149.341 95.9181C149.768 100.074 150.195 103.809 150.612 107.126C151.112 110.449 151.638 117.397 152.195 127.981C152.763 138.564 153.013 145.199 152.945 147.876C152.872 150.554 152.518 152.356 151.883 153.272C150.466 155.314 148.555 155.981 146.154 155.272C143.763 154.564 142.284 152.939 141.716 150.397L140.987 147.335C137.029 150.012 130.643 151.46 121.841 151.668L114.633 144.585C109.7 139.725 106.529 135.251 105.112 131.168C103.706 127.074 103.924 122.554 105.758 117.606C107.867 111.397 111.352 107.059 116.216 104.585C118.825 103.251 120.763 101.809 122.029 100.251C123.305 98.6994 124.789 97.991 126.487 98.1265C128.247 98.2827 129.487 98.6421 130.195 99.2098C130.904 99.7671 131.82 101.246 132.945 103.647C134.07 106.038 135.263 107.517 136.529 108.085C137.805 108.658 138.513 108.658 138.654 108.085C138.789 107.241 138.367 103.929 137.383 98.1473C136.393 92.3556 136.008 87.6994 136.216 84.1681Z" fill="#3178C6"/>
<path d="M186.378 114.856C181.711 112.955 178.493 112.991 176.732 114.96C175.675 116.309 175.779 117.158 177.045 117.501C178.321 117.85 181.076 118.168 185.315 118.46C189.399 118.741 191.159 118.387 190.607 117.397C190.315 116.762 188.904 115.913 186.378 114.856ZM206.586 120.876C206.586 122.501 205.545 124.199 203.461 125.96C201.378 127.725 199.133 128.824 196.732 129.251C194.341 129.668 189.93 129.913 183.503 129.981C177.086 130.054 173.383 129.876 172.399 129.46C171.409 129.033 170.92 128.96 170.92 129.251L172.19 132.522C173.883 136.621 175.93 138.913 178.336 139.397C180.722 139.83 184.383 138.991 189.315 136.876C194.258 134.751 197.279 133.585 198.378 133.376C199.472 133.168 200.743 133.522 202.19 134.439C203.633 135.356 204.425 136.804 204.565 138.772C204.701 140.746 204.133 142.304 202.857 143.439C201.591 144.564 198.841 146.033 194.607 147.835C190.383 149.626 187.425 150.71 185.732 151.085C184.034 151.47 181.529 151.527 178.211 151.251C174.904 150.97 171.909 149.918 169.232 148.085C166.55 146.251 164.295 143.501 162.461 139.835C160.628 136.158 159.565 132.345 159.274 128.397C159.133 124.455 159.659 121.038 160.857 118.147C162.065 115.246 163.94 112.179 166.482 108.939C169.024 105.689 171.243 103.606 173.149 102.689C175.05 101.772 177.972 101.455 181.92 101.731C185.878 102.012 189.086 102.72 191.545 103.856C195.779 105.97 199.341 108.647 202.232 111.897C205.133 115.137 206.586 118.126 206.586 120.876Z" fill="#3178C6"/>
<path d="M224.663 89.564C224.663 107.205 224.944 116.658 225.517 117.918C226.85 118.835 230.861 118.309 237.559 116.335C244.267 114.366 248.079 112.6 248.996 111.043C249.913 109.71 248.892 106.856 245.934 102.481C242.975 98.1056 240.079 95.0744 237.246 93.3765C234.423 91.6838 230.23 90.4129 224.663 89.564ZM218.309 78.8765H227.309C232.392 79.1577 236.767 80.1421 240.434 81.8348C244.1 83.5327 247.835 86.564 251.642 90.939C255.46 95.314 258.142 99.8296 259.684 104.481C261.1 109.064 261.027 112.949 259.475 116.126C257.918 119.293 254.46 122.116 249.1 124.585C243.736 127.059 237.85 128.647 231.434 129.356L225.309 130.085L225.829 138.564C226.105 142.231 226.173 144.705 226.038 145.981C225.897 147.246 225.371 148.335 224.454 149.251C222.965 151.012 221.376 151.751 219.684 151.46C218.001 151.179 216.559 149.804 215.35 147.335C214.569 145.934 213.897 135.22 213.329 115.189C212.772 95.1473 212.85 84.2463 213.559 82.4806C213.694 82.0535 213.902 81.6994 214.184 81.4181C214.475 81.1421 214.756 80.8296 215.038 80.4806C215.314 80.1213 215.663 79.8713 216.079 79.7306C216.506 79.5952 216.829 79.4494 217.038 79.2931C217.329 79.0171 217.751 78.8765 218.309 78.8765Z" fill="#3178C6"/>
<path d="M294.079 114.856C289.412 112.955 286.194 112.991 284.433 114.96C283.376 116.309 283.48 117.158 284.746 117.501C286.022 117.85 288.777 118.168 293.017 118.46C297.1 118.741 298.86 118.387 298.308 117.397C298.017 116.762 296.605 115.913 294.079 114.856ZM314.287 120.876C314.287 122.501 313.246 124.199 311.162 125.96C309.079 127.725 306.834 128.824 304.433 129.251C302.043 129.668 297.631 129.913 291.204 129.981C284.787 130.054 281.084 129.876 280.1 129.46C279.11 129.033 278.621 128.96 278.621 129.251L279.892 132.522C281.584 136.621 283.631 138.913 286.037 139.397C288.423 139.83 292.084 138.991 297.017 136.876C301.959 134.751 304.98 133.585 306.079 133.376C307.173 133.168 308.444 133.522 309.892 134.439C311.334 135.356 312.126 136.804 312.267 138.772C312.402 140.746 311.834 142.304 310.558 143.439C309.293 144.564 306.543 146.033 302.308 147.835C298.084 149.626 295.126 150.71 293.433 151.085C291.735 151.47 289.23 151.527 285.912 151.251C282.605 150.97 279.61 149.918 276.933 148.085C274.251 146.251 271.996 143.501 270.162 139.835C268.329 136.158 267.267 132.345 266.975 128.397C266.834 124.455 267.36 121.038 268.558 118.147C269.767 115.246 271.642 112.179 274.183 108.939C276.725 105.689 278.944 103.606 280.85 102.689C282.751 101.772 285.673 101.455 289.621 101.731C293.579 102.012 296.787 102.72 299.246 103.856C303.48 105.97 307.043 108.647 309.933 111.897C312.834 115.137 314.287 118.126 314.287 120.876Z" fill="#3178C6"/>
<path d="M360.926 143.21C359.02 143.21 357.577 142.293 356.593 140.46C355.603 138.626 354.619 135.241 353.635 130.293C352.077 121.559 350.208 116.554 348.031 115.272C347.531 114.996 347.036 115.033 346.551 115.376C344.786 116.793 342.843 123.46 340.718 135.376C340.02 139.267 338.968 142.22 337.551 144.231C336.135 146.231 334.635 147.095 333.051 146.814C331.468 146.522 330.572 146.376 330.364 146.376C329.515 146.376 328.739 145.116 328.031 142.585C327.322 140.043 326.541 135.21 325.697 128.085C324.848 120.96 323.687 115.741 322.218 112.418C319.744 106.71 320.093 103.08 323.26 101.522C326.645 99.7619 329.718 101.272 332.468 106.064L334.906 110.418L338.176 106.918C339.869 105.017 341.916 103.642 344.322 102.793C346.723 101.949 348.911 101.845 350.885 102.481C354.135 103.47 356.952 105.887 359.343 109.731C361.744 113.564 363.577 118.731 364.843 125.231C366.119 131.72 366.51 136.335 366.01 139.085C365.452 141.835 363.76 143.21 360.926 143.21Z" fill="#3178C6"/>
</svg>
